<?xml version="1.0" encoding="UTF-8" standalone="no"?>
<!-- Uploaded to: SVG Repo, www.svgrepo.com, Generator: SVG Repo Mixer Tools -->

<svg
   width="562.23041"
   height="396.82501"
   viewBox="0 0 16.866912 11.904751"
   version="1.1"
   id="svg1"
   sodipodi:docname="icon.svg"
   inkscape:version="1.4.2 (ebf0e940d0, 2025-05-08)"
   xml:space="preserve"
   xmlns:inkscape="http://www.inkscape.org/namespaces/inkscape"
   xmlns:sodipodi="http://sodipodi.sourceforge.net/DTD/sodipodi-0.dtd"
   xmlns="http://www.w3.org/2000/svg"
   xmlns:svg="http://www.w3.org/2000/svg"
   xmlns:rdf="http://www.w3.org/1999/02/22-rdf-syntax-ns#"
   xmlns:cc="http://creativecommons.org/ns#"
   xmlns:dc="http://purl.org/dc/elements/1.1/"><defs
     id="defs1">
	
	

	

		
	
			
			
			
			
		</defs><sodipodi:namedview
     id="namedview1"
     pagecolor="#ffffff"
     bordercolor="#000000"
     borderopacity="0.25"
     inkscape:showpageshadow="2"
     inkscape:pageopacity="0.0"
     inkscape:pagecheckerboard="0"
     inkscape:deskcolor="#d1d1d1"
     inkscape:zoom="0.84976791"
     inkscape:cx="305.9659"
     inkscape:cy="140.03824"
     inkscape:window-width="2560"
     inkscape:window-height="1446"
     inkscape:window-x="0"
     inkscape:window-y="120"
     inkscape:window-maximized="1"
     inkscape:current-layer="svg1" /><title
     id="title1">fish_fill</title><metadata
     id="metadata1"><rdf:RDF><cc:Work
         rdf:about=""><dc:title>fish_fill</dc:title></cc:Work></rdf:RDF></metadata><path
     class="st11"
     d="m 16.866912,11.038363 c -2.3664,-0.53568 -5.570401,0.07824 -5.570401,0.07824 -2.3208,0.40176 -4.14144,-0.35712 -4.14144,-0.35712 1.72032,-0.93744 1.78368,-3.048 1.7832,-3.36864 0,-0.01392 -4.8e-4,-0.02736 -4.8e-4,-0.04128 0,-1.96032 1.58928,-3.5491201 3.549121,-3.5491201 1.17312,0 2.21328,0.56928 2.85936,1.4462401 0.14592,0.19824 -0.05472,0.46656 -0.28656,0.384 -0.22512,-0.08016 -0.46896,-0.12192 -0.72288,-0.11712 -1.08528,0.02064 -1.97088,0.90528 -1.99248,1.99056 -0.02016,1.0209595 0.71232,1.87488 1.68048,2.04384 0.14304,0.02496 0.28848,0.03024 0.43296,0.02448 0.32688,-0.0144 1.56288,0.036 2.40912,1.46592 z"
     id="path1"
     style="fill:#1383ff;fill-opacity:1;stroke-width:0.048" /><path
     class="st12"
     d="M 15.037441,11.602112 C 11.37312,10.772672 6.41232,11.723072 6.41232,11.723072 2.81904,12.345152 0,11.170112 0,11.170112 2.66352,9.719072 2.76192,6.450752 2.76096,5.953952 2.76048,5.932832 2.76,5.911232 2.76,5.890112 c 0,-3.0350401 2.46048,-5.4955201 5.49552,-5.4955201 1.81632,0 3.42672,0.88128 4.427041,2.23968 0.22608,0.30672 -0.08496,0.7224 -0.44352,0.59424 -0.34896,-0.12432 -0.725761,-0.18912 -1.118881,-0.18144 -1.68048,0.03216 -3.05184,1.4020801 -3.08544,3.0825601 -0.03168,1.58112 1.10304,2.90304 2.60208,3.16464 0.22128,0.0384 0.4464,0.04704 0.67056,0.03744 0.505921,-0.0216 2.419681,0.05616 3.730081,2.2704 z"
     id="path2"
     style="fill:#50aef0;fill-opacity:1;stroke:none;stroke-width:0.048;stroke-opacity:1" /><path
     id="形状"
     style="fill:#4365a1;fill-opacity:1;fill-rule:evenodd;stroke:none;stroke-width:0.187579"
     d="m 15.130606,0.0133557 c -0.31111,0.042265 -0.670369,0.1898848 -0.943447,0.4702635 -0.170935,0.1755027 -1.385603,0.4026803 -0.512774,0.6088253 0.02869,0.046169 -0.108164,0.5503313 -0.10943,0.8235853 -2.16e-4,0.029374 1.1e-4,0.06147 6.98e-4,0.095813 l 0.0026,0.1092765 0.0041,0.1198418 0.02252,0.5420994 c -0.114727,0.019618 -0.220548,0.040357 -0.306506,0.062343 l -0.06934,0.018765 c -0.07001,0.020684 -0.139982,0.048805 -0.191507,0.099475 -0.02926,0.028772 -0.144441,0.1369568 -0.06656,0.174476 0.210993,0.1016512 0.346703,0.080813 0.501666,0.2022871 0.129022,0.1039128 0.151056,0.3594002 0.280052,0.4460565 0.08913,0.059873 0.175957,-0.095143 0.203217,-0.191822 0.01493,-0.053269 0.0226,-0.1177725 0.02711,-0.1813319 0.0062,-0.088094 0.0077,-0.1953806 0.0065,-0.3112089 0.0921,-0.013242 0.187379,-0.026402 0.281167,-0.039368 l 0.19616,-0.02727 0.181914,-0.026462 0.108497,-0.017088 0.09484,-0.016568 c 0.269877,-0.050516 0.766381,-0.2738547 0.862005,-0.1838436 0.205366,0.2105837 0.287035,0.3056543 0.293288,0.1687977 l 0.170765,-0.8352008 0.0028,-0.00924 C 16.4312,1.7087485 16.475648,1.3031653 16.429395,0.9710194 16.402541,0.7780391 16.345352,0.6107509 16.283886,0.4819084 16.225917,0.360382 16.154621,0.2532706 16.087135,0.1972969 16.019653,0.1413207 15.90091,0.0908333 15.770333,0.0559743 c -0.138435,-0.036961 -0.314109,-0.062817 -0.509749,-0.054367 -0.04209,0.00182 -0.08555,0.00571 -0.13,0.011744 z m 0.568804,0.6967741 -0.05851,0.6750846 -0.727706,0.1721495 0.07369,-0.6832322 z" /></svg>
